<?xml version="1.0" encoding="UTF-8" standalone="no"?>
<!-- Created with Inkscape (http://www.inkscape.org/) -->

<svg
   version="1.1"
   id="svg2"
   width="760"
   height="760"
   viewBox="0 0 760 760"
   sodipodi:docname="background.svg"
   inkscape:version="1.1 (1:1.1+202105261517+ce6663b3b7)"
   xmlns:inkscape="http://www.inkscape.org/namespaces/inkscape"
   xmlns:sodipodi="http://sodipodi.sourceforge.net/DTD/sodipodi-0.dtd"
   xmlns="http://www.w3.org/2000/svg"
   xmlns:svg="http://www.w3.org/2000/svg">
  <defs
     id="defs6" />
  <sodipodi:namedview
     id="namedview4"
     pagecolor="#ffffff"
     bordercolor="#666666"
     borderopacity="1.0"
     inkscape:pageshadow="2"
     inkscape:pageopacity="0.0"
     inkscape:pagecheckerboard="0"
     showgrid="false"
     inkscape:zoom="0.45254834"
     inkscape:cx="-65.186406"
     inkscape:cy="157.99417"
     inkscape:window-width="1848"
     inkscape:window-height="1016"
     inkscape:window-x="1992"
     inkscape:window-y="27"
     inkscape:window-maximized="1"
     inkscape:current-layer="g8"
     inkscape:snap-page="true" />
  <g
     inkscape:groupmode="layer"
     inkscape:label="Image"
     id="g8"
     transform="translate(1627.6163,-146.8663)">
    <rect
       style="fill:#000000;fill-opacity:1;stroke-width:16.2253;stroke-linecap:round;stroke-linejoin:round"
       id="rect3499"
       width="760"
       height="760"
       x="-1627.6163"
       y="146.8663"
       inkscape:export-filename="/home/emilien/Code/emilienduri.eu/EmilienD.github.io/monogram.png"
       inkscape:export-xdpi="459.82001"
       inkscape:export-ydpi="459.82001" />
    <path
       style="fill:#ffffff;fill-opacity:0.97848;stroke-width:0.554198"
       d="m -1391.6687,650.73068 v -6.65152 h 14.9634 14.9633 V 527.14341 410.20765 h -14.9633 -14.9634 v -6.92862 -6.92862 l 131.9265,0.13969 131.9264,0.1397 10.7797,24.9389 10.7796,24.93891 1.3463,3.133 1.3462,3.133 -6.0723,2.62466 -6.0723,2.62465 -0.3763,-0.3763 -0.3763,-0.3763 -10.1127,-23.39279 -10.1128,-23.39278 -105.6001,-0.13998 -105.6003,-0.13997 v 55.14949 55.14949 l 26.463,-0.14392 26.4629,-0.14393 0.1434,-29.78813 0.1434,-29.78814 h -11.0888 -11.0888 v -6.92747 -6.92748 h 52.0359 52.0359 l 5.7392,0.57484 5.7393,0.57485 5.5755,1.32883 5.5754,1.32883 4.2825,1.70118 4.2824,1.70118 3.1658,1.60311 3.1657,1.60312 5.2649,3.44284 5.2649,3.44284 6.6624,6.72818 6.6624,6.72819 3.1905,4.84401 3.1904,4.84402 2.5015,5.13155 2.5015,5.13154 1.6165,5.26488 1.6166,5.26488 0.9516,4.98778 0.9516,4.98778 0.01,8.86717 0.01,8.86716 -0.9351,5.11168 -0.9352,5.11167 -1.7217,5.41809 -1.7217,5.41808 -2.7038,5.43234 -2.7038,5.43234 -3.3079,4.82032 -3.3079,4.82032 -3.6647,4.00645 -3.6645,4.00645 -4.5378,3.65272 -4.5377,3.65272 -4.9878,2.99295 -4.9877,2.99295 -4.4336,1.91892 -4.4336,1.91892 -4.8155,1.3947 -4.8154,1.3947 -5.7854,0.85905 -5.7855,0.85906 h -54.1017 -54.1017 v -6.65038 -6.65037 h 11.0839 11.084 v -29.92668 -29.92669 h -26.6015 -26.6015 v 55.14269 55.14269 h 105.7702 105.7703 l 10.1412,-16.64519 10.1411,-16.64518 0.3661,-0.22626 0.3661,-0.22627 5.3659,3.19819 5.3658,3.19819 0.2844,0.28444 0.2845,0.28445 -12.1318,19.90064 -12.1317,19.90063 -131.6869,0.1397 -131.6869,0.1397 z m 190.367,-58.59006 4.9878,-1.15186 4.7584,-1.73844 4.7584,-1.73844 4.3642,-2.48704 4.3642,-2.48704 4.0661,-3.11444 4.0662,-3.11445 3.838,-4.16514 3.8379,-4.16514 2.4802,-3.69676 2.4802,-3.69675 2.1711,-4.38996 2.171,-4.38995 1.4349,-4.43358 1.4348,-4.43358 0.8563,-4.63336 0.8562,-4.63335 v -6.51656 -6.51656 l -0.8579,-4.9194 -0.8578,-4.9194 -1.6572,-4.94608 -1.6571,-4.9461 -2.3189,-4.45747 -2.3191,-4.45748 -3.1016,-4.17671 -3.1015,-4.1767 -3.5641,-3.56405 -3.564,-3.56405 -4.1767,-3.10156 -4.1767,-3.10156 -4.4575,-2.31904 -4.4575,-2.31903 -4.9461,-1.65709 -4.9461,-1.6571 -4.9194,-0.85787 -4.9194,-0.85787 h -36.5093 -36.5093 l 0.1434,29.78814 0.1434,29.78813 h 29.0954 29.0954 l 0.1508,-10.39121 0.1507,-10.39121 h 6.6382 6.6381 v 29.37249 29.37249 h -6.6503 -6.6504 v -12.19236 -12.19235 h -29.3725 -29.3725 v 29.55722 29.55722 l 0.4011,0.40106 0.401,0.40107 37.1459,-0.20894 37.1458,-0.20894 z"
       id="path12"
       inkscape:export-filename="/home/emilien/Code/emilienduri.eu/EmilienD.github.io/monogram.png"
       inkscape:export-xdpi="459.82001"
       inkscape:export-ydpi="459.82001" />
  </g>
</svg>
