<?xml version="1.0" standalone="no"?>
<!DOCTYPE svg PUBLIC "-//W3C//DTD SVG 20010904//EN" "http://www.w3.org/TR/2001/REC-SVG-20010904/DTD/svg10.dtd">
<svg version="1.0" xmlns="http://www.w3.org/2000/svg" width="700.000000pt" height="700.000000pt"
  viewBox="0 0 700.000000 700.000000" preserveAspectRatio="xMidYMid meet">
  <g transform="translate(0.000000,700.000000) scale(0.100000,-0.100000)" fill="#000000" stroke="none">
    <path d="M0 3500 l0 -3500 3500 0 3500 0 0 3500 0 3500 -3500 0 -3500 0 0
-3500z m5990 1925 c129 -300 236 -549 238 -553 1 -5 -61 -36 -139 -70 l-140
-61 -21 22 c-12 12 -103 213 -204 447 l-183 425 -1940 3 -1941 2 0 -990 0
-990 453 0 454 0 6 197 c4 108 7 342 7 520 l0 323 -210 0 -210 0 0 165 0 165
1004 0 c1060 0 1138 -3 1311 -46 280 -70 494 -191 703 -397 304 -300 462 -672
462 -1088 0 -312 -93 -609 -273 -873 -234 -341 -614 -579 -1026 -641 -85 -13
-261 -15 -1141 -15 l-1040 0 0 160 0 160 210 0 210 0 0 520 0 520 -460 0 -460
0 0 -990 0 -990 1947 2 1948 3 185 304 c111 182 194 308 207 314 18 8 41 -2
130 -56 60 -36 116 -74 126 -84 16 -18 5 -37 -221 -409 l-238 -389 -2487 -3
-2487 -2 0 160 0 160 280 0 280 0 0 2145 0 2145 -280 0 -280 0 0 165 0 165
2493 0 2492 0 235 -545z" />
    <path d="M2900 4293 c0 -225 3 -459 7 -520 l6 -113 503 0 504 0 2 193 3 192
160 0 160 0 3 -582 2 -583 -165 0 -165 0 0 225 0 225 -510 0 -510 0 0 -522 0
-521 688 6 c642 5 693 7 772 26 565 133 950 610 950 1176 0 141 -18 253 -61
385 -115 350 -409 643 -759 759 -183 60 -200 61 -927 61 l-663 0 0 -407z" />
  </g>
</svg>
