<?xml version="1.0" encoding="utf-8"?>
<!-- Generator: Adobe Illustrator 16.0.0, SVG Export Plug-In . SVG Version: 6.00 Build 0)  -->
<!DOCTYPE svg PUBLIC "-//W3C//DTD SVG 1.1//EN" "http://www.w3.org/Graphics/SVG/1.1/DTD/svg11.dtd">
<svg version="1.1" id="Calque_1" xmlns="http://www.w3.org/2000/svg" xmlns:xlink="http://www.w3.org/1999/xlink" x="0px" y="0px"
	 width="269.946px" height="319.108px" viewBox="0 0 269.946 319.108" enable-background="new 0 0 269.946 319.108"
	 xml:space="preserve">
<g>
	<path fill="#FFFFFF" d="M95.219,18.139l-0.075,0.014c0.45-0.454,1.008-0.951,1.693-1.459c2.314-1.715,6.581-3.899,13.761-4.562
		c5.763-0.532,10.521-1.642,14.161-2.81l-0.003,0.003c4.048-1.076,8.169-3.007,10.223-4.037c2.341,0.149,3.782,0.326,3.782,0.326
		s-0.883-0.509-2.45-1.019l0.003-0.001h-0.007c-1.727-0.561-4.283-1.122-7.443-1.004c-6.032,0.225-9.898,2.023-9.898,2.023
		c4.094-0.488,8.139-0.579,11.494-0.515l-3.599,2.103c-4.558,0.812-11.562,2.237-16.469,2.69
		c-15.094,1.393-18.763,9.098-18.911,9.425l-0.533,1.172c0.388-0.199,0.769-0.423,1.138-0.684
		C93.122,19.073,94.145,18.547,95.219,18.139z"/>
	<path fill="#FFFFFF" d="M61.686,103.51c0.177-0.018,0.354-0.031,0.53-0.054c0.462-2.363,0.827-5.043,0.827-7.661
		c0-5.81,0.957-14.71,1.655-21.208c0.133-1.232,0.256-2.383,0.363-3.414c0.646-6.246,3.264-15.361,5.959-20.752l3.304-6.607
		l6.737-7.39l5.678-3.058l13.605-9.514c1.03-0.721,3.479-2.796,3.479-2.796s-0.938-0.029-2.126-0.098
		c-0.859,0.287-16.082,10.458-16.082,10.458l-5.958,3.209l-7.206,7.902l-3.443,6.887c-2.798,5.597-5.515,15.052-6.185,21.526
		c-0.106,1.029-0.229,2.176-0.362,3.405c-0.514,4.784-1.166,10.855-1.48,16.095c0.131,0.25,0.225,0.534,0.262,0.855
		C61.72,95.363,61.772,99.436,61.686,103.51z"/>
	<path fill="#FFFFFF" d="M142.209,3.793c11.826,2.41,17.888,5.28,17.947,5.309l9.97,4.783L156.57,3.579
		c3.164,0.759,7.369,2.097,10.639,4.315c5.664,3.844,20.197,20.258,20.197,20.258l0.658,0.3c0.193,0.089,19.438,8.967,24.154,22.29
		c3.807,10.752,4.914,23.013,5.646,31.126c0.206,2.281,0.385,4.251,0.584,5.754c0.646,4.843,0.34,14.817,0.131,19.783
		c0.773-1.108,1.58-2.195,2.376-3.288c0.171-5.329,0.27-12.694-0.276-16.792c-0.195-1.456-0.371-3.403-0.574-5.659
		c-0.743-8.226-1.865-20.655-5.767-31.674c-3.96-11.185-16.833-19.122-22.567-22.192h0.001c-2.118-1.083-3.805-5.431-6.278-10.267
		c-2.475-4.835-6.859-8.995-6.859-8.995s2.137,5.06,2.811,6.297c0.223,0.405,0.455,1.167,0.668,2.007
		c-2.354-2.267-5.377-4.998-8.138-9.203c-4.036-6.147-6.136-6.521-6.136-6.521s0.576,2.731,2.421,6.269
		c-0.653-0.531-1.257-0.991-1.79-1.353c-6.449-4.377-15.846-5.513-16.242-5.559L148.146,0l5.855,4.451
		c-2.892-0.895-6.67-1.909-11.344-2.862c-10.397-2.119-14.545-0.703-15.798-0.043c1.693,0.107,3.517,0.182,5.089,0.667
		C132.313,2.325,138.281,2.992,142.209,3.793z"/>
	<path fill="#FFFFFF" d="M174.812,24.213c-1.366-1.337-7.123-6.484-16.763-8.559l0.005,0.012c-0.271-0.063-0.539-0.132-0.814-0.188
		c-1.211-0.025-2.443-0.049-3.632,0.061c-1.695,0.157-3.396,0.358-5.081,0.607c-0.969,0.143-1.918,0.425-2.88,0.562
		c-0.36,0.052-0.681,0.203-1.039,0.267c-0.436,0.077-0.884,0.094-1.319,0.18c-1.023,0.203-1.867,0.558-2.693,1.196
		c-0.48,0.371-0.83,0.782-1.252,1.214c-0.275,0.283-0.652,0.587-0.573,1.037c0.244,0.099,0.667-0.428,0.882-0.555
		c0.863-0.512,1.777-0.862,2.698-1.277c0.902-0.407,1.809-0.823,2.809-0.869c0.718-0.033,1.388-0.171,2.095-0.263
		c1.255-0.164,2.604-0.03,3.869-0.03c1.475,0,2.948-0.001,4.422,0c1.125,0.001,2.216,0.108,3.332,0.139
		c2.492,0.642,4.804,3.751,6.896,4.052c-1.742-0.062-3.502,0.008-5.245,0.008c-0.978,0-1.954,0.005-2.931,0
		c-0.566-0.002-1.061,0.129-1.609,0.153c-0.408,0.018-0.834-0.065-1.236,0.026c-0.349,0.079-0.568,0.276-0.851,0.457
		c-0.435,0.279-0.82,0.705-1.214,1.085c1.681-0.465,3.404-0.735,5.158-0.632c3.587,0.211,6.938,1.569,10.508,1.839
		c1.898,0.144,3.826,0.217,5.721-0.014c0.355-0.043,0.704-0.11,1.05-0.187c0.002,0,0.008,0.002,0.008,0.002l-0.003-0.003
		c0.153-0.034,0.307-0.066,0.46-0.105C175.331,24.353,175.072,24.28,174.812,24.213z"/>
	<path fill="#FFFFFF" d="M60.981,107.405c1.312-0.197,10.607,2.445,10.607,2.445l2.944-0.627c0.736-0.035,1.653-0.089,2.59-0.163
		h0.003c0.545-0.043,1.098-0.094,1.625-0.152c5.146-0.447,21.892-1.624,41.414-0.07l-5.697-2.323c0,0-17.127-0.749-30.938,0.439
		c2.511-1.766,6.949-4.638,6.949-4.638l-5.06,0.675l8.434-4.048l-5.847,0.225c0,0,4.273-3.598,12.369-3.598
		c5.633,0,14.637,2.068,20.809,4.084c1.005,0.278,2.004,0.631,2.971,1.052c1.296,0.503,2.33,0.978,2.982,1.386
		c0.487,0.304,0.783,0.6,0.941,0.884c2.299,1.742,4.046,4.017,4.671,6.782c5.542,1.164,9.231,2.454,9.231,2.454
		s7.533,1.574,10.682,1.574s7.759-1.574,7.759-1.574s4.432-0.403,8.901-0.83c0.123-0.004,24.395-0.971,29.555-1.419
		c5.172-0.45-2.812-0.562-11.582-0.562c-8.752,0-18.807,0.236-18.849,0.237c-3.3-0.645-6.001-1.67-6.001-3.048
		c0-2.699,12.368-7.422,12.368-7.422l-2.474,2.699l7.871-2.475l-4.273,3.148c0,0,5.173-0.225,12.369,0.226
		c7.197,0.449,15.742,6.746,15.742,6.746l4.04,0.418c0,0,17.887,3.518,19.124,4.08c1.236,0.562,0.562,3.261,0.562,3.261
		s1.236-1.911,1.124-4.16c-0.104-2.086-7.659-2.625-18.711-4.217c-0.876-3.099-2.944-11.259-2.767-18.722
		c0.226-9.445,2.024,7.871,3.148,10.794c1.125,2.924,2.475-4.048,2.699-17.316c0.225-13.268-2.924-28.785-6.972-34.633
		c-4.048-5.847-15.517-13.043-19.341-12.818c-3.822,0.225-9.67-2.023-15.292-2.698s-20.689-3.148-30.135,1.574l6.071-5.173
		c0,0-13.042,2.699-17.54,2.699c-3.103,0-14.233-1.285-22.462-2.081c-0.344,0.08-0.688,0.17-1.034,0.279
		c-3.507,1.109-6.77,2.699-10.177,4.06c-1.634,0.652-3.329,1.172-4.944,1.831c-0.733,1.029-1.188,1.758-1.188,1.758l-5.397,4.272
		c0,0-3.374,4.948-6.747,12.145c-3.374,7.196-4.723,20.465-4.723,20.465l7.421-15.067c0,0-5.847,16.642-7.421,24.062
		c-1.574,7.422-1.799,14.394-1.799,14.394l2.249-6.072l-0.785,14.52c-3.055-0.426-9.437-1.279-12.071-1.363
		c-3.523-0.113-2.662,2.819-2.662,2.819S59.669,107.602,60.981,107.405z M193.478,93.471c0,0-11.095-1.349-14.692-6.896
		C176.512,83.07,193.478,93.471,193.478,93.471z M92.41,72.86c-0.219,3.28-1.018,6.463-2.101,9.635
		c-0.844,2.475-1.874,4.922-3.204,7.181C87.567,83.256,90.515,76.57,92.41,72.86z M81.708,85c0.225-9.895,6.972-20.914,6.972-20.914
		c-0.192,5.576-5.15,17.723-6.584,21.128c-0.122-0.059-0.252-0.104-0.39-0.139C81.708,85.05,81.708,85.025,81.708,85z"/>
	<polygon fill="#FFFFFF" points="71.588,116.06 72.601,117.675 72.601,112.115 71.588,112.999 	"/>
	<path fill="#FFFFFF" d="M207.561,116.934c0.004,0.001,0.008,0,0.01,0.001C207.479,116.923,207.492,116.925,207.561,116.934z"/>
	<path fill="#FFFFFF" d="M185.381,118.209v-0.938c-1.574-0.112-3.522-0.779-3.522,1.429
		C181.858,120.907,184.715,120.534,185.381,118.209z"/>
	<path fill="#FFFFFF" d="M97.788,21.773c6.297-4.015,11.469-6.315,11.469-6.315l-6.297,1.514c-4.61,0.899-10.008,5.729-14.393,6.35
		C88.567,23.321,91.491,25.788,97.788,21.773z"/>
	<path fill="#FFFFFF" d="M220.164,128.554c0,0,0.45-4.349,0.525-7.197c0.075-2.848,0-4.272-2.452-6.071s-13.451-2.401-13.451-2.401
		h0.001c-3.738-0.569-9.632-0.408-15.582,0.003c-0.672,0.046-1.299,0.096-1.889,0.147c3.751,0.849,6.546,2.573,9.084,4.237
		c3.374,2.211,2.25,4.91,2.25,4.91s-1.425-3.748-5.322-5.473c-3.898-1.724-7.797-2.398-11.77-1.687
		c1.247,0.047,2.609,0.305,4.055,0.756l-0.001-0.001c0,0,2.168,0.407,4.491,2.057c2.324,1.648,5.174,3.522,6.147,5.097
		c0.975,1.574-1.499,0.525-2.849,0.525s-3.148,0.675-3.148,0.675s2.1-1.875,1.949-3.074c-0.111-0.888-2.438-1.814-3.762-2.055
		c-0.148,3.553-3.066,6.391-6.656,6.391c-3.683,0-6.668-2.986-6.668-6.669c0-0.023,0.002-0.047,0.003-0.071
		c-2.732,0.778-6.679,3.342-6.306,3.529c0.45,0.225,3.674,1.949,3.674,1.949s-6.896-0.226-7.047-0.975
		c-0.15-0.75,2.699-3.299,4.423-4.198s4.796-2.173,6.728-3.18c0.887-0.47,1.393-0.761,1.144-0.756
		c-3.085,0.062-11.919,0.675-13.381,2.249c-1.284,1.382-1.18,4.844-0.913,8.179c-0.078,0.425-0.025,0.878,0.118,1.379
		c0.11,1.251,0.353,1.657,0.624,1.647c0.373,0.873,0.814,1.879,1.183,3.075c0.899,2.924,4.61,7.646,9.221,9.982
		c4.61,2.337,18.216,1.374,25.923,1.262s6.123-0.562,8.26-2.249c2.137-1.687,6.072-3.148,5.96-6.971
		c-0.112-3.823,3.261-5.173,3.489-7.759c0.229-2.587-1.69-4.61-3.377-3.823s-5.455-1.888-5.74-4.864
		c-0.188-0.021-0.375-0.041-0.562-0.065c0.066,0.009-0.755-0.101-0.979-0.131c-1.211-0.147-2.238,1.342-2.238,0.001
		c0-0.823,0.57-1.753,1.363-2.11c0.133-0.06,0.271-0.103,0.416-0.128c0.004-0.001,0.008-0.002,0.014-0.003
		c0.062-0.01,0.125-0.015,0.189-0.018c0.012,0,0.023-0.003,0.036-0.003c0.075-0.002,0.153,0.002,0.229,0.013
		c0.439,0.057,0.877,0.116,1.314,0.176c-0.175-0.023-0.116-0.017,0.174,0.021c0.176,0.021,0.351,0.04,0.527,0.057
		c0.137,0.012,0.273,0.022,0.41,0.031c0.787-0.314,2.124-0.157,4.471,0.24c4.423,0.75,5.098,2.699,5.023,4.959
		C219.414,122.43,220.164,128.554,220.164,128.554z"/>
	<path fill="#FFFFFF" d="M269.939,304.266c-0.033-0.132-0.531-0.452-1.352-0.898C269.646,304.223,270,304.51,269.939,304.266z"/>
	<path fill="#FFFFFF" d="M199.549,261.087c-0.666,2.317,13.719,3.823,13.044,18.441c-0.515,11.166-6.281,15.899-13.886,18.917
		c3.753-3.377,6.289-6.644,7.514-9.322c4.798-10.494,4.498-12.893,0-18.591c-1.941-2.459-4.328-3.745-6.393-5.136
		c-4.352,9.175-10.398,8.735-10.398,8.735s5.019-7.685,5.868-14.951c-0.142-0.805-0.206-1.706-0.171-2.741
		c0.3-8.995,0.899-48.876,0.899-48.876s-11.694,17.093-16.492,27.287s-12.293,24.288-28.186,29.686
		c-13.23,4.493-23.967,5.236-35.67-3.895c-2.907-1.793-5.58-3.96-7.871-6.784c-2.888-3.56-6.002-7.547-8.209-11.869
		c-7.626-12.579-10.162-24.423-10.618-26.928c-0.282-1.552,2.621,1.077,5.774,4.296c1.547,2.794,2.871,5.305,3.671,7.248
		c2.099,5.098,17.092,18.142,22.339,21.439c5.248,3.298,16.192,2.998,17.691,2.998s11.844,3.074,22.414-3.897
		c10.569-6.972,22.938-23.389,29.01-33.509c4.811-8.016,9.053-17.596,10.722-25.698c-0.204,3.547-0.292,7.501,0.014,9.64
		c1.845-3.972,7.472-35.998,8.905-39.938c1.799-4.947,1.049,1.649,0,9.596c-1.05,7.945-1.35,8.396,2.698,6.747
		c4.048-1.649,4.948-9.746,4.948-12.744c0-2.745,4.271-9.387,7.064-15.781c0.48,0.585,0.67,1.396,0.412,2.153
		c-0.217,0.641-0.439,1.277-0.721,1.893c-0.26,0.565-0.559,1.011-1.135,1.295c-0.141,0.069-0.287,0.121-0.438,0.159
		c0.443,0.247,0.925,0.371,1.423,0.33c1.753-0.144,3.015-2.218,2.817-4.631c-0.114-1.387-0.69-2.574-1.488-3.313
		c0.678-1.721,1.409-3.51,2.086-5.337c-0.543-0.878-0.455-2.146,0.261-2.898c0.533,0.414,0.888,1.053,0.887,1.768
		c0,0.677-0.005,1.351-0.075,2.024c-0.063,0.618-0.203,1.135-0.658,1.59c-0.111,0.11-0.233,0.207-0.363,0.291
		c0.498,0.093,0.995,0.055,1.453-0.144c1.615-0.7,2.143-3.068,1.18-5.291c-0.309-0.713-0.736-1.315-1.225-1.793
		c1.102-4.014,1.509-8.052,0.063-11.745c-2.312-5.909,0.433-1.144-2.409,2.701c0.295,1.219,0.166,2.796-0.327,4.907
		c-0.787,3.374-1.349,6.409-2.698,9.333s-2.361,12.481-2.249,7.084c0.074-3.564-1.134-7.704-1.183-11.81
		c-0.675,2.854-1.222,5.82-3.428,8.174c-4.498,4.798-6.746,1.649-14.843,2.399c-8.096,0.749-23.838,1.824-30.435-3.062
		c-4.094-3.031-6.511-4.699-7.758-5.53c-0.129,1.132-0.197,2.175-0.107,2.744c0.27,1.687,0.855,16.305,0.855,16.305
		s-1.686-3.599-2.248-8.096c-0.562-4.498-1.338-17.692-1.338-17.692v0.001c-0.371-1.213-0.753-2.418-1.099-3.411
		c-1.2-3.448,1.565-6.688-1.199-7.046c-2.677-0.348-12.269-3.148-14.155,1.948c-1.887,5.098,0.838,5.697,0,9.146
		s-3.836,5.997-5.335,8.396c-1.499,2.398-7.496,5.247-23.238,5.247c-3.899,0-7.55-0.102-10.907-0.295
		c4.912-0.427,10.643-1.136,16.229-1.717c12.144-1.262,12.819-6.159,14.168-8.296c1.35-2.137,0.45-2.474,2.136-4.723
		c1.688-2.249,3.33-8.683,1.644-12.331s-11.425-3.86-19.184-4.535s-6.521,0.675-8.546,0.562c-0.988-0.056-0.019,0.079,1.218,0.747
		c0.056,0.122,0.111,0.24,0.145,0.376c0.083,0.328,0.122,0.83-0.095,1.114c-0.133,0.175-0.334,0.311-0.482,0.474
		c-0.131,0.144-0.259,0.293-0.394,0.437c-0.205,0.22-0.225,0.444-0.225,0.74c0,0.279,0.104,0.454,0.281,0.665
		c0.193,0.229,0.336,0.534,0.62,0.669c0.113,0.053,0.235,0.069,0.351,0.117c0.114,0.047,0.198,0.109,0.324,0.118
		c0.207,0.016,0.423-0.006,0.631-0.003c0.619,0.01,1.115-0.641,1.437-1.107c0.06-0.087,0.112-0.179,0.159-0.272
		c0.056,0.292,0.087,0.602,0.079,0.936c-0.113,4.447-5.285,5.896-7.421,5.784c-2.137-0.112-4.161-1.911-4.835-4.497
		c-0.675-2.587-1.574-2.024-4.498-0.338c-0.161,0.094-0.324,0.183-0.487,0.271c-0.282,0.152-0.564,0.295-0.845,0.431
		c-0.771,0.954,0.928,3.028,3.244,3.121c2.811,0.112,1.509,2.811-1.719,1.799c-2.952-0.925-7.367-2.526-5.639-4.72
		c1.042-1.639,10.334-5.41,12.643-5.85c1.568-0.298,0.361-0.943-0.727-1.442c-0.081,0.004-0.165,0.012-0.248,0.018
		c-0.269,0.119-0.581,0.188-0.937,0.188c-0.125,0-0.242-0.011-0.356-0.026c-5.58,0.971-13.274,5.379-12.351,3.737
		c0.983-1.747,6.836-4.745,9.239-4.926c-2.104-0.041-5.31,0.053-10.026,0.428c-9.895,0.787-8.545,7.197-8.658,12.481
		c0,0-0.899,0-0.007,6.859c0.682,5.242,4.541,8.665,7.92,10.775c-2.56-0.603-4.578-1.312-5.963-2.118
		c-4.648-2.698-2.849-13.043-6.147-15.741c-3.298-2.699-7.796-3.898-7.796-3.898s0.45,14.393,0.6,19.94
		c0.15,5.547,1.499,14.992,1.499,14.992l1.35-9.445l-0.15,15.143c0,0-2.249,2.999-2.548-1.649c-0.3-4.647-2.099-22.789-2.099-22.789
		s-3.298-17.064-3.298-17.902s-4.498-6.534-10.345-5.635c-5.847,0.898-8.845,6.296-6.447,15.741
		c2.399,9.445,4.948,14.692,7.497,19.94c2.548,5.247,5.247,6.296,6.597,13.942c1.349,7.646,1.649,7.047,4.947,7.946
		s3.298-4.647,3.298-4.647s2.999,16.042,5.547,23.538c0.11,0.324,0.225,0.649,0.341,0.973c2.412,7.556,2.808,25.781,2.808,40.407
		c0,12.4-2.761,26.18-7.002,33.985c-3.192,4.393-1.621-3.398-12.863,4.695c-11.245,8.096-10.57,7.422-22.039,12.145
		C29.178,284.173,11.112,292.61,0,298.176v1.946c3.881-1.522,8.187-3.146,11.318-3.952c7.871-2.024,17.316-12.144,17.542-1.799
		c0.225,10.345-2.249,14.393-2.249,14.393s10.57-14.168,12.369-19.565c1.799-5.397,8.546-11.694,12.144-9.221
		c3.598,2.475-6.747,18.666-6.747,18.666s11.919-11.02,12.819-14.617c0.899-3.599,6.528-4.211,6.728-7.639
		c1.479,3.24,4.119,9.031,4.966,10.937c1.2,2.699,28.486,31.784,68.066,31.784c20.869,0,37.651-5.419,49.561-12.08
		c0.262-0.134,0.532-0.284,0.815-0.464c0.28-0.161,0.558-0.322,0.831-0.484c6.066-3.312,18.51-5.371,24.477-13.958
		c6.25-8.996,10.522-8.096,14.796-2.474c3.777,4.97,2.99,14.679,6.02,20.128c0.402-0.016,0.807-0.028,1.21-0.04
		c-0.419-6.723-1.382-22.146-1.382-22.131c0,0.019,9.445,6.99,12.818,14.411c3.373,7.422,11.02,17.092,11.02,17.092
		s-9.221-23.613-9.221-24.513c0-0.768,15.896,6.166,20.688,8.771c-2.844-2.298-10.776-8.708-29.458-20.016
		C213.492,267.834,209.67,256.14,199.549,261.087z M216.528,146.395l1.124,4.136c-0.225,5.147-3.822,5.31-3.936,3.061
		C213.605,151.342,213.942,148.868,216.528,146.395z M196.738,180.128c0-2.812-1.35-6.916-3.823-10.008
		C199.719,171.076,196.738,182.938,196.738,180.128z M124.097,114.233c0.34,0.018,0.615,0.172,0.906,0.34
		c0.31,0.178,0.614,0.395,0.922,0.567c0.222,0.125,0.467,0.123,0.705,0.217c0.169,0.066,0.339,0.131,0.508,0.199
		c0.732,0.295,1.271,0.809,1.881,1.271c0.305,0.231,0.427,0.416,0.616,0.753c0.159,0.285,0.715,0.752,0.522,1.119
		c-0.193-0.126-0.442-0.08-0.661-0.079c-0.285,0.001-0.425-0.019-0.671-0.142c-0.622-0.311-1.077-0.841-1.668-1.186
		c-0.565-0.33-1.182-0.654-1.708-1.057c-0.273-0.209-0.441-0.535-0.696-0.767c-0.283-0.257-0.526-0.22-0.878-0.223l-0.899-1.013
		C123.347,114.235,123.726,114.214,124.097,114.233z M122.413,119.07c-1.012-0.562-6.796-5.663-4.385-4.835
		c3.598,1.237,9.108,5.285,8.996,6.409c-0.112,1.125-0.899,1.574-4.948,2.699c-4.048,1.124-5.397,0-5.397,0s2.024-0.45,4.947-1.35
		C124.55,121.095,123.425,119.633,122.413,119.07z M110.382,130.202c3.148,0,11.694-3.148,15.405-3.936h2.811
		C118.14,134.025,107.233,130.202,110.382,130.202z M92.278,184.775c0,0-1.199-11.544,7.946-12.219
		C93.812,176.5,92.278,184.775,92.278,184.775z M101.954,214.068c1.898,1.853,3.882,3.636,5.471,5.812
		c2.495,3.418,5.146,6.62,8.196,9.48C111.168,229.015,105.867,220.297,101.954,214.068z M105.473,209.624
		c1.899,1.852,3.882,3.635,5.471,5.811c0.038,0.053,0.077,0.104,0.115,0.155c0.167,1.102,0.356,2.199,0.58,3.286
		C109.433,215.986,107.301,212.533,105.473,209.624z M133.62,214.98c1.963-0.533,3.706-0.949,5.874-0.339
		c2.13,0.601,4.133,1.679,6.164,2.579C146.859,218.985,135.389,216.616,133.62,214.98z M174.587,214.068
		c0,0,1.066-2.331,2.321-4.743c1.372-1.49,2.752-2.973,3.967-4.597c0.014,0.163,0.018,0.356,0.009,0.587
		C180.658,211.162,174.587,214.068,174.587,214.068z M176.498,164.048c4.961,2.245,8.939,5.601,11.094,7.688
		c-1.53-1.021-3.173-1.871-4.851-2.762c-1.533-0.813-2.953-1.797-4.333-2.845c-1.422-1.08-3.033-1.918-4.312-3.166
		c-0.116-0.114-0.222-0.239-0.334-0.359C174.539,163.086,175.439,163.569,176.498,164.048z M173.838,176.829
		c0.91,0,1.648,0.873,1.648,1.949s-0.738,1.949-1.648,1.949c-0.912,0-1.65-0.873-1.65-1.949S172.926,176.829,173.838,176.829z
		 M156.826,176.136c0.169,0,0.333,0.018,0.494,0.045c0.117-0.898,0.546-2.351,0.904-3.66c0.121-0.268,0.207-0.536,0.297-0.826
		c0.067-0.217,0.107-0.417,0.131-0.628c0.009-0.085,0.023-0.166,0.023-0.26c0-0.044,0.002-0.092,0.004-0.14
		c0.005-0.112,0.006-0.227-0.043-0.323c-0.111-0.216-0.26-0.041-0.414,0.043c-0.095,0.053-0.203,0.104-0.291,0.166
		c-0.119,0.083-0.22,0.237-0.327,0.342c-0.114,0.112-0.222,0.231-0.35,0.336c-0.054,0.044-0.11,0.083-0.165,0.122l-2.068,0.38
		v-0.375c1.949-0.975,6.747-3.974,8.846-3.898s0.449,3.898,0.449,3.898s-1.724-0.75-2.773-0.524c-0.516,0.11-1.012,0.13-1.385,0.122
		c-0.066,1.325-0.226,3.021-0.525,3.888c-0.353,1.023-0.621,1.672-0.84,2.068c0.569,0.528,0.928,1.281,0.928,2.12
		c0,1.6-1.296,2.896-2.895,2.896c-1.6,0-2.896-1.296-2.896-2.896S155.227,176.136,156.826,176.136z M147.6,137.249h0.092
		c-0.38,3.763-2.572,6.647-6.367,7.69c-1.449,0.398-4.252,0.934-6.565,0.694C137.285,144.624,145.1,141.251,147.6,137.249z
		 M141.896,175.293c-0.619-1.796-0.629-3.085-0.479-3.935c0.483,0.34,0.923,0.763,1.294,1.239c-0.164,1.039,1.009,2.94,1.398,4.05
		c0.193-0.04,0.392-0.062,0.596-0.062c1.6,0,2.895,1.296,2.895,2.896c0,1.599-1.295,2.896-2.895,2.896s-2.896-1.297-2.896-2.896
		c0-0.839,0.358-1.592,0.929-2.121C142.519,176.964,142.25,176.315,141.896,175.293z M144.703,148.496
		c-0.835,0.605-1.808,1.083-2.93,1.391c-1.449,0.398-4.252,0.935-6.565,0.695c0.949-0.38,2.647-1.097,4.528-2.051
		C141.392,148.583,143.048,148.571,144.703,148.496z M133.893,168.276c2.92-1.887,6.541,0.565,9.64,1.584
		c1.021,0.878,1.743,1.571,1.743,1.571v1.125c0,0-2.548-2.623-3.823-2.549c-1.274,0.075-0.75,1.8-0.75,1.8s-5.846,0.225-7.045-2.699
		c-0.089-0.217-0.149-0.419-0.19-0.611C133.608,168.44,133.75,168.369,133.893,168.276z M132.608,156.439
		c-4.048,2.249-6.668,5.547-5.583,9.596c1.085,4.048,3.934,6.146,3.934,6.146s-2.393-0.07-4.43-0.693
		c-1.343-1.795-2.402-3.765-2.995-5.911C123.979,161.684,126.335,156.826,132.608,156.439z M132.608,188.811
		c9.146-0.612,13.043,2.411,19.04,1.212c5.996-1.199,16.492,1.05,22.114,0.899c5.622-0.149,8.62-4.947,9.819-1.349
		c1.199,3.598-5.996,3.897-7.346,3.897s-3.599,0.6-11.303,2.999c-7.705,2.398-12.086,0.899-19.657,1.51
		c-7.571,0.609-19.715-1.811-21.742-1.811s4.038,7.14,11.225,6.747c7.187-0.393,18.239,2.249,20.263,2.249s1.875,2.849-9.745,3.299
		c-11.619,0.449-19.265-6.598-22.563-8.097c-3.298-1.499-10.945-9.146-10.045-6.372c0.9,2.774,2.399,11.92-1.168,6.522
		s-5.14-12.416-3.779-13.044C109.67,186.574,123.463,189.423,132.608,188.811z M99.025,187.324
		c0.15,6.446-7.497-10.046,11.694-11.994C115.206,174.874,98.875,180.877,99.025,187.324z M110.989,152.4
		c-3.053,0.467-12.64,2.158-18.824-3.195C97.785,150.062,107.839,152.13,110.989,152.4z M56.746,122.856
		c-1.574,0.899-1.124,4.647-1.124,8.096s0.149,11.919-0.225,11.319s-4.498-12.744-4.798-17.392c-0.3-4.647,1.125-7.196,3.449-7.608
		c2.324-0.412,4.451,2.503,7.646,5.51c3.823,3.598,3.073,12.743,0.899,10.045c-2.174-2.699,0.225-4.723-0.899-6.747
		C60.569,124.056,58.32,121.956,56.746,122.856z M63.726,154.715c-0.608-1.124-4.806-3.973-4.881-5.847
		c-0.075-1.874-1.649-6.146,0.45-8.771c2.099-2.624,2.999-5.473,5.098-3.599c2.348,2.098-2.999,7.497,0,13.719
		C67.391,156.439,64.334,155.84,63.726,154.715z M81.867,195.386c-0.578-6.744-1.149-15.94-0.533-20.956
		c0.83-6.757,1.285,11.228,3.366,22.908C85.137,199.407,83.49,197.829,81.867,195.386z"/>
	<path fill="#FFFFFF" d="M104.699,111.735l0.118,0.045c-0.036-0.017-0.072-0.034-0.108-0.05
		C104.705,111.731,104.702,111.733,104.699,111.735z"/>
	<polygon fill="#FFFFFF" points="104.816,111.78 104.819,111.781 104.82,111.781 	"/>
</g>
</svg>
