<?xml version="1.0" encoding="UTF-8" standalone="no"?>
<!-- Generator: Adobe Illustrator 16.0.0, SVG Export Plug-In . SVG Version: 6.00 Build 0)  -->

<svg
   xmlns:dc="http://purl.org/dc/elements/1.1/"
   xmlns:cc="http://creativecommons.org/ns#"
   xmlns:rdf="http://www.w3.org/1999/02/22-rdf-syntax-ns#"
   xmlns:svg="http://www.w3.org/2000/svg"
   xmlns="http://www.w3.org/2000/svg"
   xmlns:sodipodi="http://sodipodi.sourceforge.net/DTD/sodipodi-0.dtd"
   xmlns:inkscape="http://www.inkscape.org/namespaces/inkscape"
   version="1.1"
   id="Calque_1"
   x="0px"
   y="0px"
   width="241.808px"
   height="262.619px"
   viewBox="0 0 241.808 262.619"
   enable-background="new 0 0 241.808 262.619"
   xml:space="preserve"
   sodipodi:docname="Emilien2coul.svg"
   inkscape:version="0.92.4 (5da689c313, 2019-01-14)"><metadata
   id="metadata49"><rdf:RDF><cc:Work
       rdf:about=""><dc:format>image/svg+xml</dc:format><dc:type
         rdf:resource="http://purl.org/dc/dcmitype/StillImage" /></cc:Work></rdf:RDF></metadata><defs
   id="defs47">
		
		
		
		
	</defs><sodipodi:namedview
   pagecolor="#ffffff"
   bordercolor="#666666"
   borderopacity="1"
   objecttolerance="10"
   gridtolerance="10"
   guidetolerance="10"
   inkscape:pageopacity="0"
   inkscape:pageshadow="2"
   inkscape:window-width="1850"
   inkscape:window-height="1016"
   id="namedview45"
   showgrid="false"
   inkscape:zoom="0.89864028"
   inkscape:cx="-76.616638"
   inkscape:cy="131.30949"
   inkscape:window-x="70"
   inkscape:window-y="27"
   inkscape:window-maximized="1"
   inkscape:current-layer="g42" />
<g
   id="g42">
	<path
   style="fill:#58a4b0;fill-opacity:1"
   inkscape:connector-curvature="0"
   id="path2"
   d="m 119.93,20.088 c 0,0 0,0 0,0 0.281,0.042 0.565,0.084 0.853,0.128 -0.287,-0.044 -0.573,-0.087 -0.853,-0.128 z" /><path
   style="fill:#58a4b0;fill-opacity:1"
   inkscape:connector-curvature="0"
   id="path4"
   d="m 60.402,100.511 c 0,0.001 0,0.002 -10e-4,0.004 0.019,-0.008 0.037,-0.017 0.056,-0.026 -0.018,0.008 -0.038,0.014 -0.055,0.022 z" /><path
   style="fill:#58a4b0;fill-opacity:1"
   inkscape:connector-curvature="0"
   id="path6"
   d="m 60.457,100.489 c 0.116,-0.05 0.235,-0.099 0.358,-0.141 -0.123,0.042 -0.242,0.09 -0.358,0.141 z" /><path
   style="fill:#58a4b0;fill-opacity:1"
   inkscape:connector-curvature="0"
   id="path8"
   d="M 120.903,0 C 54.13,0 0,54.131 0,120.904 c 0,44.125 23.641,82.722 58.944,103.833 0.345,-0.247 0.685,-0.491 1.063,-0.764 8.625,-6.21 7.419,-0.232 9.868,-3.603 3.254,-5.988 5.372,-16.559 5.372,-26.072 0,-11.221 -0.304,-25.202 -2.154,-30.999 -0.089,-0.248 -0.177,-0.497 -0.261,-0.746 -1.956,-5.751 -4.256,-18.058 -4.256,-18.058 0,0 0,4.256 -2.53,3.565 -2.53,-0.691 -2.76,-0.23 -3.795,-6.096 -1.035,-5.866 -3.105,-6.671 -5.061,-10.696 -1.956,-4.026 -3.911,-8.052 -5.751,-15.298 -1.84,-7.246 0.46,-11.387 4.946,-12.077 1.398,-0.215 2.695,0.062 3.819,0.564 -0.01,-0.275 -0.046,-0.544 -0.117,-0.802 -0.085,-0.309 -0.207,-0.584 -0.347,-0.84 0.253,-0.754 0.462,-1.526 0.663,-2.302 -0.613,0.277 -1.084,0.626 -1.084,0.626 0,0 -0.661,-2.25 2.042,-2.164 0.022,0 0.05,0.002 0.074,0.003 0.364,-0.533 0.57,-1.142 0.628,-1.778 -0.054,0.005 -0.108,0.011 -0.162,0.017 0.067,-3.126 0.026,-6.25 -0.339,-9.37 -0.029,-0.247 -0.1,-0.464 -0.201,-0.656 0.241,-4.02 0.741,-8.677 1.136,-12.348 0.102,-0.943 0.196,-1.823 0.278,-2.612 0.514,-4.967 2.598,-12.221 4.745,-16.514 l 2.642,-5.283 5.528,-6.062 4.571,-2.461 c 0,0 4.443,-2.969 8.003,-5.296 -0.033,0.021 -0.064,0.042 -0.097,0.063 0.114,-0.461 0.15,-0.943 0.111,-1.418 0.003,-10e-4 0.006,-0.003 0.008,-0.004 -3.92,1.979 -5.761,0.445 -5.761,0.445 2.079,-0.294 4.455,-1.821 6.801,-3.108 0.533,-0.78 0.758,-1.764 0.675,-2.717 -0.423,0.252 -0.811,0.502 -1.132,0.74 -0.525,0.39 -0.954,0.771 -1.299,1.12 l 0.057,-0.011 c -0.824,0.313 -1.608,0.717 -2.404,1.279 -0.283,0.2 -0.575,0.372 -0.873,0.524 l 0.409,-0.899 c 0.114,-0.251 2.928,-6.162 14.508,-7.23 3.765,-0.348 9.138,-1.441 12.634,-2.064 l 2.761,-1.613 c -2.574,-0.049 -5.677,0.02 -8.818,0.395 0,0 2.966,-1.38 7.593,-1.552 1.963,-0.073 3.615,0.196 4.879,0.529 -0.001,0 -0.002,0 -0.003,-0.001 0.669,-0.189 1.21,-0.544 1.619,-1.004 -2.101,-0.307 -3.953,-0.528 -4.127,-0.582 -1.207,-0.373 -2.605,-0.43 -3.905,-0.512 0.961,-0.506 4.144,-1.593 12.12,0.033 3.587,0.731 6.485,1.51 8.703,2.196 l -4.492,-3.415 3.131,0.364 c 0.305,0.035 7.514,0.906 12.462,4.265 0.408,0.277 0.872,0.63 1.373,1.038 -1.415,-2.714 -1.856,-4.81 -1.856,-4.81 0,0 1.609,0.288 4.706,5.003 2.119,3.227 4.437,5.322 6.244,7.061 -0.165,-0.645 -0.344,-1.229 -0.513,-1.539 -0.519,-0.949 -2.157,-4.831 -2.157,-4.831 0,0 3.365,3.192 5.262,6.901 1.898,3.709 3.192,7.045 4.817,7.876 h -10e-4 c 4.399,2.355 14.276,8.445 17.313,17.025 2.992,8.453 3.854,17.989 4.423,24.3 0.157,1.73 0.292,3.224 0.44,4.341 0.42,3.144 0.345,8.793 0.213,12.882 -0.61,0.838 -1.23,1.672 -1.823,2.522 0.287,-0.412 0.588,-0.815 0.884,-1.222 0.009,0.554 0.015,1.109 0.015,1.664 0,0.641 0.179,1.24 0.466,1.775 -0.006,-0.001 -0.012,-0.001 -0.018,-0.002 4.044,0.584 6.518,1.124 6.569,2.163 0.083,1.669 -0.795,3.084 -0.853,3.175 -0.084,0.478 -0.115,0.966 -0.039,1.445 -0.011,-0.029 -0.018,-0.044 -0.023,-0.057 0.051,0.11 0.229,0.724 0.771,2.108 1.109,2.833 0.797,5.931 -0.049,9.01 0.374,0.366 0.703,0.829 0.939,1.375 0.74,1.705 0.334,3.522 -0.904,4.059 -0.352,0.152 -0.732,0.182 -1.114,0.11 0.099,-0.064 0.193,-0.139 0.277,-0.223 0.349,-0.349 0.457,-0.746 0.506,-1.22 0.053,-0.517 0.058,-1.034 0.058,-1.553 0,-0.548 -0.271,-1.039 -0.681,-1.356 -0.55,0.577 -0.615,1.55 -0.199,2.224 -0.52,1.401 -1.081,2.774 -1.601,4.094 0.611,0.567 1.054,1.479 1.141,2.542 0.152,1.852 -0.815,3.442 -2.161,3.553 -0.382,0.031 -0.752,-0.063 -1.09,-0.253 0.115,-0.029 0.228,-0.069 0.334,-0.123 0.443,-0.218 0.673,-0.56 0.871,-0.993 0.217,-0.472 0.387,-0.96 0.554,-1.452 0.197,-0.58 0.052,-1.203 -0.317,-1.651 -2.143,4.905 -5.42,10.001 -5.42,12.106 0,2.3 -0.69,8.512 -3.796,9.777 -3.104,1.265 -2.875,0.919 -2.07,-5.177 0.806,-6.096 1.381,-11.156 0,-7.361 -1.099,3.023 -5.416,27.593 -6.831,30.64 -0.106,-0.743 -0.148,-1.778 -0.15,-2.935 -0.718,2.247 -1.529,4.467 -2.166,6.657 -0.408,1.399 -0.809,2.8 -1.207,4.201 -0.044,2.899 -0.468,30.695 -0.687,37.233 -0.026,0.794 0.023,1.485 0.131,2.103 -0.023,0.204 -0.061,0.409 -0.093,0.614 1.472,0.151 2.967,0.226 4.44,0.397 -0.005,0.002 -0.01,0.004 -0.015,0.006 4.545,-1.612 7.644,1.47 14.37,6.933 35.17,-21.143 58.703,-59.666 58.703,-103.69 C 241.808,54.131 187.677,0 120.903,0 Z" />
	<g
   id="g40">
		<path
   fill="#FFFFFF"
   d="M87.624,31.725l-0.057,0.011c0.345-0.349,0.773-0.73,1.299-1.12c0.321-0.238,0.709-0.488,1.132-0.74    c0.09-0.054,0.179-0.107,0.274-0.162c0.115-0.065,0.228-0.129,0.35-0.195c0.207-0.11,0.428-0.218,0.656-0.327    c0.107-0.051,0.205-0.103,0.317-0.153c0.341-0.154,0.704-0.306,1.092-0.452c0.105-0.04,0.222-0.076,0.331-0.115    c0.3-0.107,0.608-0.212,0.935-0.312c0.162-0.049,0.332-0.096,0.5-0.143c0.303-0.085,0.616-0.167,0.941-0.244    c0.187-0.044,0.375-0.088,0.569-0.129c0.353-0.076,0.722-0.144,1.1-0.208c0.184-0.032,0.361-0.066,0.551-0.094    c0.576-0.087,1.174-0.165,1.809-0.224c4.421-0.408,8.071-1.259,10.864-2.155l-0.003,0.002c3.105-0.826,6.268-2.307,7.843-3.098    c1.795,0.115,2.901,0.25,2.901,0.25s-0.678-0.39-1.879-0.781l0.001-0.001h-0.004c-0.253-0.082-0.534-0.163-0.832-0.241    c-1.264-0.333-2.917-0.603-4.879-0.529c-4.627,0.172-7.593,1.552-7.593,1.552c3.141-0.375,6.244-0.444,8.818-0.395l-2.761,1.613    c-3.497,0.623-8.87,1.716-12.634,2.064c-11.58,1.068-14.394,6.979-14.508,7.23l-0.409,0.899c0.298-0.153,0.59-0.325,0.873-0.524    C86.016,32.442,86.8,32.038,87.624,31.725z"
   id="path12" />
		<path
   fill="#FFFFFF"
   d="M61.898,97.219c0.054-0.005,0.108-0.011,0.162-0.017c0.082-0.008,0.164-0.015,0.246-0.025    c0.354-1.813,0.634-3.869,0.634-5.877c0-4.457,0.734-11.285,1.27-16.271c0.102-0.945,0.197-1.828,0.278-2.619    c0.496-4.791,2.504-11.785,4.572-15.92l2.535-5.069l5.168-5.669l4.356-2.346l10.437-7.299c0.79-0.553,2.669-2.145,2.669-2.145    s-0.719-0.022-1.631-0.075c-0.028,0.009-0.085,0.038-0.153,0.075c-0.016,0.008-0.031,0.017-0.049,0.027    c-0.075,0.042-0.164,0.093-0.272,0.158c-0.016,0.009-0.034,0.021-0.05,0.03c-0.103,0.062-0.219,0.133-0.346,0.212    c-0.031,0.019-0.06,0.037-0.092,0.057c-0.152,0.094-0.315,0.197-0.495,0.311c-0.011,0.007-0.022,0.014-0.033,0.021    c-0.334,0.211-0.717,0.458-1.125,0.721c-0.188,0.122-0.384,0.248-0.584,0.378c-0.365,0.237-0.741,0.481-1.134,0.738    c-3.56,2.327-8.003,5.296-8.003,5.296l-4.571,2.461l-5.528,6.062l-2.642,5.283c-2.146,4.293-4.231,11.547-4.745,16.514    c-0.082,0.79-0.176,1.669-0.278,2.612c-0.395,3.67-0.895,8.328-1.136,12.348c0.101,0.192,0.172,0.41,0.201,0.656    C61.925,90.969,61.965,94.093,61.898,97.219z"
   id="path14" />
		<path
   fill="#FFFFFF"
   d="M120.782,20.216c0.067,0.01,0.134,0.021,0.202,0.031c0.287,0.045,0.574,0.09,0.857,0.138    c0.004,0,0.007,0.001,0.011,0.001c0.279,0.046,0.554,0.094,0.824,0.143c0.069,0.013,0.138,0.025,0.206,0.038    c0.271,0.05,0.538,0.1,0.791,0.152c9.073,1.85,13.723,4.051,13.77,4.073l7.647,3.669l-10.399-7.906    c2.428,0.583,5.653,1.609,8.161,3.311c4.346,2.949,15.494,15.542,15.494,15.542l0.507,0.23c0.148,0.068,14.912,6.879,18.53,17.1    c2.92,8.249,3.77,17.655,4.332,23.879c0.157,1.75,0.293,3.261,0.447,4.415c0.495,3.715,0.26,11.367,0.1,15.176    c0.593-0.85,1.213-1.684,1.823-2.522c0.132-4.089,0.207-9.739-0.213-12.882c-0.148-1.117-0.283-2.611-0.44-4.341    c-0.569-6.311-1.431-15.847-4.423-24.3c-3.037-8.58-12.914-14.669-17.313-17.025h0.001c-1.625-0.831-2.919-4.167-4.817-7.876    c-1.896-3.709-5.262-6.901-5.262-6.901s1.639,3.882,2.157,4.831c0.169,0.311,0.348,0.895,0.513,1.539    c-1.808-1.739-4.125-3.834-6.244-7.061c-3.097-4.715-4.706-5.003-4.706-5.003s0.441,2.096,1.856,4.81    c-0.501-0.408-0.965-0.761-1.373-1.038c-4.948-3.358-12.157-4.229-12.462-4.265l-3.131-0.364l4.492,3.415    c-2.218-0.686-5.116-1.465-8.703-2.196c-7.976-1.626-11.158-0.54-12.12-0.033c1.299,0.082,2.698,0.139,3.905,0.512    C116,19.568,118.354,19.843,120.782,20.216z"
   id="path16" />
		<path
   fill="#FFFFFF"
   d="M148.686,36.385c-1.048-1.026-5.465-4.975-12.859-6.566l0.003,0.009c-0.207-0.048-0.412-0.101-0.623-0.144    c-0.93-0.02-1.875-0.038-2.787,0.046c-1.301,0.12-2.605,0.274-3.898,0.465c-0.743,0.11-1.47,0.327-2.209,0.432    c-0.275,0.04-0.522,0.155-0.797,0.204c-0.334,0.06-0.678,0.072-1.012,0.138c-0.785,0.156-1.433,0.428-2.066,0.918    c-0.369,0.285-0.637,0.6-0.96,0.932c-0.212,0.217-0.501,0.45-0.44,0.795c0.188,0.076,0.513-0.328,0.676-0.425    c0.664-0.393,1.363-0.662,2.07-0.98c0.692-0.312,1.388-0.631,2.155-0.667c0.55-0.025,1.064-0.131,1.606-0.202    c0.963-0.126,1.998-0.023,2.97-0.023c1.129,0,2.261,0,3.392,0c0.862,0,1.699,0.083,2.557,0.106c1.91,0.492,3.685,2.878,5.29,3.109    c-1.336-0.047-2.687,0.005-4.024,0.005c-0.749,0-1.499,0.004-2.249,0c-0.435-0.002-0.813,0.099-1.233,0.117    c-0.314,0.014-0.64-0.05-0.948,0.021c-0.268,0.061-0.437,0.212-0.653,0.351c-0.332,0.214-0.629,0.541-0.931,0.832    c1.289-0.356,2.61-0.564,3.956-0.484c2.753,0.162,5.324,1.204,8.062,1.411c1.455,0.11,2.935,0.166,4.389-0.011    c0.273-0.033,0.54-0.084,0.805-0.144c0.002,0,0.007,0.002,0.007,0.002s-0.003-0.002-0.004-0.002    c0.119-0.026,0.237-0.051,0.354-0.081C149.084,36.492,148.886,36.437,148.686,36.385z"
   id="path18" />
		<path
   fill="#FFFFFF"
   d="M60.815,100.348c0.027-0.009,0.053-0.019,0.081-0.028c0.152-0.048,0.307-0.089,0.462-0.113    c1.007-0.151,8.137,1.876,8.137,1.876l2.259-0.48c0.564-0.027,1.268-0.068,1.987-0.125h0.002c0.418-0.034,0.842-0.072,1.247-0.117    c3.948-0.343,16.794-1.246,31.771-0.054l-4.371-1.783c0,0-13.14-0.574-23.734,0.337c1.927-1.354,5.331-3.557,5.331-3.557    l-3.882,0.517l6.47-3.105l-4.486,0.173c0,0,3.278-2.76,9.489-2.76c4.321,0,11.229,1.586,15.964,3.133    c0.771,0.214,1.537,0.484,2.279,0.807c0.995,0.386,1.787,0.75,2.288,1.063c0.374,0.233,0.601,0.46,0.722,0.678    c1.764,1.337,3.104,3.082,3.583,5.203c4.252,0.894,7.081,1.883,7.081,1.883s5.78,1.208,8.195,1.208    c2.416,0,5.952-1.208,5.952-1.208s3.4-0.309,6.829-0.636c0.094-0.003,18.716-0.745,22.673-1.089    c3.969-0.345-2.156-0.431-8.885-0.431c-6.714,0-14.427,0.181-14.46,0.182c-2.532-0.494-4.604-1.281-4.604-2.338    c0-2.07,9.489-5.693,9.489-5.693l-1.897,2.07l6.038-1.898l-3.277,2.415c0,0,3.968-0.172,9.489,0.173    c5.52,0.345,12.076,5.176,12.076,5.176l3.099,0.321c0,0,13.723,2.698,14.671,3.129c0.106,0.048,0.189,0.124,0.262,0.208    c0.02,0.023,0.037,0.047,0.055,0.072c0.055,0.078,0.1,0.164,0.134,0.258c0.007,0.018,0.016,0.032,0.021,0.051    c0.037,0.114,0.061,0.237,0.076,0.364c0.004,0.031,0.006,0.062,0.009,0.094c0.01,0.106,0.015,0.212,0.014,0.318    c0,0.027,0.001,0.052,0,0.079c-0.004,0.128-0.012,0.251-0.024,0.368c-0.002,0.02-0.004,0.037-0.006,0.056    c-0.011,0.09-0.022,0.171-0.034,0.247c-0.011,0.063-0.019,0.111-0.028,0.161c-0.024,0.131-0.046,0.226-0.046,0.226    s0.009-0.014,0.011-0.017c0.058-0.091,0.936-1.505,0.853-3.175c-0.052-1.039-2.525-1.578-6.569-2.163    c-1.277-0.185-2.71-0.375-4.277-0.586c-0.256-0.034-0.513-0.069-0.775-0.105c-0.26-0.035-0.515-0.07-0.781-0.107    c-0.635-0.087-1.281-0.177-1.951-0.274c-0.672-2.377-2.259-8.637-2.122-14.363c0.173-7.246,1.553,6.039,2.415,8.281    c0.862,2.243,1.897-3.105,2.07-13.285c0.173-10.179-2.242-22.083-5.349-26.569c-3.105-4.485-11.904-10.006-14.837-9.834    c-2.934,0.172-7.418-1.553-11.731-2.07s-15.873-2.416-23.119,1.208l4.659-3.968c0,0-10.007,2.07-13.458,2.07    c-2.381,0-10.919-0.985-17.232-1.597c-0.264,0.062-0.528,0.13-0.793,0.214c-2.691,0.851-5.194,2.071-7.808,3.115    c-1.253,0.5-2.553,0.899-3.792,1.405c-0.562,0.79-0.912,1.349-0.912,1.349l-4.141,3.277c0,0-2.588,3.796-5.176,9.317    s-3.623,15.7-3.623,15.7l5.694-11.559c0,0-4.486,12.767-5.694,18.46c-1.208,5.693-1.38,11.042-1.38,11.042l1.726-4.658    l-0.603,11.139c-2.317-0.323-7.125-0.966-9.187-1.043c-0.023-0.001-0.051-0.003-0.074-0.003c-2.703-0.086-2.042,2.164-2.042,2.164    S60.012,100.621,60.815,100.348z M163.005,89.518c0,0-8.511-1.035-11.271-5.291C149.99,81.539,163.005,89.518,163.005,89.518z     M85.47,73.706c-0.168,2.516-0.781,4.958-1.612,7.391c-0.647,1.898-1.438,3.776-2.458,5.508    C81.754,81.681,84.016,76.552,85.47,73.706z M77.26,83.019c0.172-7.591,5.348-16.045,5.348-16.045    c-0.147,4.278-3.951,13.597-5.051,16.208c-0.093-0.045-0.194-0.08-0.299-0.106C77.259,83.057,77.259,83.039,77.26,83.019z"
   id="path20" />
		<polygon
   fill="#FFFFFF"
   points="69.496,106.847 70.272,108.085 70.272,103.821 69.496,104.499   "
   id="polygon22" />
		<path
   fill="#FFFFFF"
   d="M173.811,107.517c0.002,0,0.004,0,0.007,0C173.746,107.509,173.756,107.51,173.811,107.517z"
   id="path24" />
		<path
   fill="#FFFFFF"
   d="M156.795,108.496v-0.719c-1.208-0.086-2.703-0.598-2.703,1.096S156.283,110.28,156.795,108.496z"
   id="path26" />
		<path
   fill="#FFFFFF"
   d="M88.283,35.256c0.193-0.098,0.391-0.202,0.592-0.314c0.234-0.133,0.472-0.271,0.72-0.429    c4.831-3.08,8.799-4.845,8.799-4.845l-4.831,1.161c-0.304,0.059-0.613,0.147-0.925,0.247c-0.073,0.023-0.145,0.047-0.218,0.072    c-0.309,0.106-0.62,0.225-0.934,0.361c-0.013,0.006-0.026,0.012-0.039,0.018c-0.318,0.139-0.638,0.292-0.959,0.454    c-0.056,0.028-0.112,0.056-0.168,0.084c-0.332,0.169-0.665,0.345-0.998,0.528c-2.346,1.287-4.722,2.813-6.801,3.108    C82.521,35.701,84.362,37.235,88.283,35.256z"
   id="path28" />
		<path
   fill="#FFFFFF"
   d="M183.479,116.432c0,0,0.344-3.336,0.402-5.521c0.058-2.185,0-3.277-1.882-4.657    c-1.882-1.38-10.319-1.843-10.319-1.843v0c-2.867-0.438-7.389-0.313-11.954,0.001c-0.515,0.036-0.995,0.074-1.448,0.114    c2.878,0.651,5.022,1.974,6.97,3.25c2.588,1.696,1.725,3.767,1.725,3.767s-1.092-2.875-4.083-4.198    c-2.989-1.323-5.98-1.841-9.029-1.294c0.958,0.036,2.004,0.233,3.111,0.58v-0.001c0,0,1.663,0.313,3.446,1.578    c1.783,1.265,3.968,2.703,4.715,3.911c0.748,1.208-1.15,0.403-2.186,0.403c-1.034,0-2.415,0.518-2.415,0.518    s1.61-1.438,1.495-2.358c-0.084-0.681-1.87-1.392-2.887-1.576c-0.112,2.726-2.352,4.903-5.104,4.903    c-2.826,0-5.117-2.291-5.117-5.116c0-0.019,0.003-0.037,0.003-0.055c-2.096,0.597-5.124,2.563-4.837,2.708    c0.345,0.172,2.817,1.495,2.817,1.495s-5.291-0.173-5.405-0.748c-0.114-0.575,2.07-2.531,3.393-3.221s3.68-1.667,5.161-2.439    c0.68-0.36,1.068-0.583,0.878-0.58c-2.367,0.047-9.145,0.518-10.266,1.725c-0.984,1.06-0.905,3.716-0.699,6.274    c-0.062,0.326-0.02,0.674,0.09,1.058c0.085,0.959,0.271,1.271,0.479,1.264c0.284,0.67,0.624,1.441,0.906,2.359    c0.69,2.243,3.537,5.866,7.073,7.658c3.536,1.793,13.975,1.054,19.889,0.968c5.912-0.086,4.697-0.431,6.336-1.725    c1.639-1.294,4.658-2.416,4.572-5.348c-0.087-2.933,2.501-3.969,2.677-5.953c0.175-1.984-1.297-3.537-2.591-2.933    c-1.294,0.604-4.186-1.448-4.404-3.731c-0.144-0.017-0.287-0.032-0.432-0.051c0.051,0.007-0.579-0.077-0.749-0.1    c-0.93-0.113-1.719,1.03-1.719,0c0-0.631,0.438-1.344,1.046-1.619c0.103-0.045,0.209-0.079,0.318-0.098    c0.005,0,0.008-0.001,0.011-0.002c0.048-0.008,0.097-0.011,0.146-0.014c0.01,0,0.019-0.002,0.028-0.002    c0.059-0.001,0.117,0.002,0.177,0.01c0.336,0.043,0.672,0.089,1.007,0.135c-0.133-0.019-0.088-0.013,0.135,0.015    c0.134,0.017,0.269,0.031,0.403,0.043c0.104,0.009,0.211,0.017,0.316,0.024c0.603-0.242,1.629-0.121,3.43,0.184    c3.393,0.576,3.911,2.07,3.853,3.805C182.903,111.734,183.479,116.432,183.479,116.432z"
   id="path30" />
		<path
   fill="#FFFFFF"
   d="M220.627,250.542c0.812,0.656,1.085,0.877,1.037,0.689C221.64,251.131,221.258,250.885,220.627,250.542z"
   id="path32" />
		<path
   fill="#FFFFFF"
   d="M183.104,224.594c-6.727-5.463-9.825-8.545-14.37-6.933c-0.161,0.057-0.323,0.118-0.487,0.186    c-0.192,0.08-0.385,0.163-0.583,0.26c-0.437,1.515,7.51,2.582,9.548,9.805c0.354,1.253,0.534,2.686,0.458,4.343    c-0.396,8.566-4.818,12.197-10.653,14.513c2.88-2.591,4.826-5.097,5.766-7.152c2.516-5.505,3.202-8.105,2.283-10.598    c-0.425-1.152-1.191-2.281-2.283-3.664c-1.489-1.887-3.322-2.873-4.904-3.94c-3.338,7.039-7.979,6.702-7.979,6.702    s0.014-0.021,0.04-0.062c0.395-0.621,3.578-5.745,4.369-10.794c0.032-0.205,0.069-0.41,0.093-0.614    c-0.107-0.617-0.157-1.309-0.131-2.103c0.219-6.538,0.643-34.334,0.687-37.233c0.002-0.161,0.004-0.263,0.004-0.263    s-8.973,13.113-12.652,20.934c-3.68,7.821-9.431,18.633-21.623,22.774c-10.15,3.446-18.387,4.017-27.366-2.988    c-2.23-1.375-4.28-3.038-6.038-5.204c-2.216-2.731-4.604-5.79-6.298-9.106c-5.851-9.649-7.796-18.736-8.146-20.657    c-0.216-1.19,2.011,0.826,4.43,3.295c1.187,2.144,2.203,4.07,2.816,5.561c1.61,3.911,13.112,13.918,17.138,16.448    c4.026,2.529,12.422,2.3,13.572,2.3s9.086,2.358,17.194-2.99c8.109-5.349,17.599-17.943,22.257-25.707    c3.689-6.149,6.943-13.499,8.225-19.715c-0.085,1.474-0.141,3.029-0.14,4.415c0,0.015,0,0.03,0,0.045c0,0,0,0,0,0.001    c0.002,1.156,0.044,2.191,0.15,2.935c1.415-3.047,5.732-27.616,6.831-30.64c1.381-3.795,0.806,1.266,0,7.361    c-0.805,6.096-1.034,6.441,2.07,5.177c3.105-1.266,3.796-7.478,3.796-9.777c0-2.105,3.277-7.201,5.42-12.106    c0.369,0.448,0.515,1.071,0.317,1.651c-0.167,0.492-0.337,0.98-0.554,1.452c-0.198,0.434-0.428,0.775-0.871,0.993    c-0.106,0.054-0.219,0.094-0.334,0.123c0.338,0.189,0.708,0.284,1.09,0.253c1.346-0.11,2.313-1.701,2.161-3.553    c-0.087-1.063-0.529-1.975-1.141-2.542c0.52-1.32,1.081-2.693,1.601-4.094c-0.416-0.674-0.351-1.647,0.199-2.224    c0.409,0.317,0.681,0.808,0.681,1.356c0,0.519-0.005,1.036-0.058,1.553c-0.049,0.474-0.157,0.871-0.506,1.22    c-0.084,0.084-0.179,0.159-0.277,0.223c0.382,0.071,0.763,0.042,1.114-0.11c1.238-0.537,1.645-2.354,0.904-4.059    c-0.236-0.547-0.565-1.009-0.939-1.375c0.846-3.079,1.158-6.177,0.049-9.01c-0.541-1.384-0.72-1.998-0.771-2.108    c-0.002-0.006-0.005-0.01-0.007-0.013c-0.005-0.008-0.008-0.005-0.01,0.005c-0.004,0.033,0.007,0.158,0.016,0.344    c0.001,0.021,0.002,0.037,0.003,0.06c0.002,0.074,0.004,0.156,0.005,0.247c0,0.003,0,0.007,0,0.011    c0,0.111-0.003,0.231-0.009,0.363c-0.001,0.007-0.001,0.014-0.001,0.022c-0.007,0.135-0.019,0.279-0.036,0.432    c-0.002,0.011-0.004,0.022-0.005,0.033c-0.017,0.132-0.039,0.27-0.065,0.412c-0.007,0.036-0.014,0.071-0.021,0.108    c-0.029,0.142-0.065,0.288-0.107,0.437c-0.006,0.019-0.01,0.037-0.016,0.056c-0.049,0.165-0.108,0.332-0.177,0.5    c-0.016,0.04-0.035,0.08-0.053,0.12c-0.057,0.131-0.12,0.263-0.19,0.395c-0.025,0.048-0.051,0.096-0.078,0.145    c-0.098,0.169-0.203,0.338-0.326,0.505c0.228,0.935,0.128,2.145-0.25,3.765c-0.604,2.588-1.036,4.917-2.071,7.16    c-1.034,2.243-1.812,9.575-1.725,5.435c0.058-2.734-0.869-5.91-0.907-9.06c-0.518,2.189-0.938,4.465-2.63,6.271    c-3.449,3.681-5.176,1.266-11.387,1.841c-6.211,0.574-18.287,1.399-23.349-2.349c-3.14-2.326-4.994-3.605-5.951-4.243    c-0.1,0.868-0.151,1.668-0.081,2.105c0.205,1.294,0.656,12.509,0.656,12.509s-1.295-2.761-1.726-6.211    c-0.432-3.451-1.027-13.573-1.027-13.573v0.001c-0.283-0.931-0.577-1.855-0.842-2.617c-0.92-2.646,1.2-5.131-0.92-5.406    c-2.053-0.267-9.411-2.416-10.859,1.495c-1.448,3.911,0.642,4.371,0,7.016c-0.643,2.646-2.943,4.601-4.093,6.442    c-1.151,1.84-5.751,4.025-17.829,4.025c-2.991,0-5.792-0.078-8.368-0.227c3.768-0.327,8.165-0.871,12.451-1.317    c9.316-0.968,9.834-4.725,10.869-6.364s0.345-1.898,1.64-3.623c1.293-1.726,2.554-6.662,1.26-9.46    c-1.294-2.799-8.765-2.962-14.718-3.48c-5.952-0.517-5.003,0.518-6.556,0.432c-0.758-0.042-0.014,0.061,0.935,0.573    c0.043,0.094,0.085,0.185,0.111,0.289c0.064,0.251,0.094,0.637-0.073,0.855c-0.103,0.134-0.256,0.238-0.37,0.363    c-0.1,0.11-0.199,0.226-0.302,0.335c-0.157,0.168-0.173,0.341-0.172,0.567c0,0.214,0.08,0.349,0.215,0.51    c0.148,0.176,0.258,0.41,0.476,0.513c0.087,0.041,0.18,0.053,0.269,0.09c0.087,0.037,0.152,0.084,0.248,0.091    c0.159,0.012,0.325-0.005,0.484-0.002c0.475,0.007,0.856-0.492,1.102-0.85c0.046-0.066,0.086-0.137,0.122-0.209    c0.043,0.224,0.067,0.462,0.061,0.718c-0.086,3.412-4.055,4.524-5.693,4.438c-1.639-0.086-3.192-1.466-3.709-3.45    c-0.518-1.984-1.208-1.553-3.451-0.259c-0.124,0.072-0.248,0.14-0.374,0.208c-0.216,0.117-0.433,0.227-0.648,0.331    c-0.592,0.732,0.712,2.324,2.489,2.395c2.156,0.086,1.158,2.156-1.319,1.38c-2.264-0.709-5.651-1.938-4.326-3.621    c0.799-1.257,7.928-4.15,9.699-4.488c1.203-0.229,0.276-0.724-0.559-1.106c-0.062,0.003-0.126,0.009-0.189,0.014    c-0.206,0.091-0.445,0.144-0.718,0.144c-0.096,0-0.186-0.008-0.273-0.021c-4.281,0.745-10.184,4.126-9.475,2.868    c0.754-1.34,5.245-3.64,7.088-3.779c-1.614-0.031-4.074,0.041-7.692,0.329c-7.591,0.604-6.556,5.521-6.642,9.575    c0,0-0.69,0-0.006,5.262c0.523,4.022,3.484,6.647,6.077,8.267c-1.964-0.462-3.512-1.007-4.575-1.625    c-3.565-2.07-2.185-10.006-4.716-12.076c-2.53-2.071-5.981-2.991-5.981-2.991s0.345,11.042,0.46,15.298    c0.115,4.255,1.15,11.501,1.15,11.501l1.036-7.246l-0.115,11.617c0,0-1.725,2.301-1.955-1.266    c-0.23-3.565-1.61-17.483-1.61-17.483s-2.53-13.091-2.53-13.734c0-0.049-0.027-0.127-0.067-0.217    c-0.011-0.025-0.026-0.053-0.04-0.081c-0.04-0.077-0.091-0.165-0.152-0.261c-0.02-0.031-0.037-0.059-0.059-0.092    c-0.089-0.13-0.193-0.271-0.317-0.423c-0.02-0.025-0.044-0.051-0.065-0.077c-0.109-0.13-0.23-0.267-0.362-0.406    c-0.043-0.046-0.088-0.092-0.133-0.138c-0.143-0.146-0.298-0.294-0.463-0.443c-0.028-0.026-0.054-0.051-0.083-0.077    c-0.196-0.172-0.409-0.343-0.633-0.51c-0.051-0.038-0.105-0.075-0.158-0.112c-0.183-0.131-0.375-0.258-0.573-0.38    c-0.066-0.041-0.132-0.082-0.2-0.122c-0.26-0.151-0.528-0.294-0.811-0.421c-1.124-0.502-2.421-0.779-3.819-0.564    c-4.486,0.69-6.786,4.831-4.946,12.077c1.84,7.246,3.796,11.271,5.751,15.298c1.955,4.025,4.025,4.83,5.061,10.696    c1.035,5.865,1.265,5.405,3.795,6.096s2.53-3.565,2.53-3.565s2.3,12.307,4.256,18.058c0.084,0.249,0.172,0.498,0.261,0.746    c1.851,5.797,2.154,19.778,2.154,30.999c0,9.514-2.118,20.084-5.372,26.072c-2.449,3.37-1.243-2.607-9.868,3.603    c-0.378,0.272-0.718,0.517-1.063,0.764c-7.515,5.395-7.432,5.089-15.845,8.553c-6.139,2.528-19.999,9.001-28.523,13.271v1.493    c2.977-1.168,6.28-2.414,8.683-3.032c6.038-1.553,13.285-9.315,13.457-1.38c0.172,7.937-1.725,11.042-1.725,11.042    s8.108-10.869,9.489-15.01c1.38-4.142,6.556-8.972,9.316-7.074c2.76,1.898-5.176,14.32-5.176,14.32s9.144-8.454,9.834-11.214    c0.69-2.761,5.008-3.23,5.162-5.86c1.135,2.485,3.16,6.929,3.81,8.39c0.92,2.071,21.854,24.384,52.218,24.384    c16.011,0,28.886-4.157,38.021-9.268c0.201-0.103,0.407-0.218,0.626-0.355c0.215-0.124,0.428-0.247,0.638-0.371    c4.653-2.542,14.199-4.121,18.777-10.709c4.795-6.901,8.073-6.21,11.351-1.897c2.898,3.812,2.295,11.261,4.617,15.441    c0.311-0.012,0.62-0.021,0.929-0.03c-0.321-5.157-1.061-16.989-1.061-16.979c0,0.015,7.246,5.363,9.834,11.056    c2.589,5.694,8.454,13.112,8.454,13.112s-7.073-18.115-7.073-18.805c0-0.589,12.194,4.73,15.87,6.729    c-2.181-1.763-8.267-6.68-22.599-15.355C191.447,231.204,186.746,227.552,183.104,224.594z M180.689,130.119l0.862,3.173    c-0.172,3.949-2.934,4.073-3.019,2.348C178.446,133.915,178.705,132.016,180.689,130.119z M165.507,155.998    c0-2.156-1.034-5.306-2.933-7.678C167.793,149.053,165.507,158.154,165.507,155.998z M109.778,105.445    c0.261,0.014,0.472,0.132,0.695,0.261c0.238,0.137,0.471,0.303,0.707,0.436c0.17,0.096,0.358,0.094,0.541,0.166    c0.13,0.051,0.26,0.101,0.39,0.153c0.562,0.226,0.975,0.62,1.443,0.975c0.234,0.178,0.327,0.319,0.472,0.578    c0.122,0.218,0.549,0.577,0.401,0.858c-0.148-0.097-0.339-0.062-0.507-0.061c-0.218,0.001-0.326-0.014-0.515-0.108    c-0.477-0.238-0.826-0.645-1.28-0.91c-0.433-0.253-0.906-0.501-1.311-0.811c-0.209-0.161-0.338-0.41-0.534-0.588    c-0.217-0.197-0.403-0.168-0.673-0.171l-0.69-0.776C109.203,105.447,109.494,105.431,109.778,105.445z M108.487,109.157    c-0.776-0.431-5.214-4.345-3.364-3.709c2.76,0.949,6.987,4.054,6.901,4.917c-0.086,0.863-0.69,1.208-3.795,2.071    c-3.105,0.862-4.141,0-4.141,0s1.553-0.346,3.795-1.036C110.126,110.709,109.263,109.588,108.487,109.157z M99.257,117.696    c2.416,0,8.971-2.415,11.818-3.019h2.157C105.208,120.629,96.841,117.696,99.257,117.696z M85.368,159.563    c0,0-0.92-8.855,6.096-9.374C86.545,153.214,85.368,159.563,85.368,159.563z M92.791,182.036c1.457,1.421,2.978,2.789,4.197,4.459    c1.914,2.622,3.948,5.078,6.288,7.272C99.86,193.502,95.793,186.814,92.791,182.036z M95.491,178.626    c1.457,1.42,2.979,2.788,4.197,4.457c0.029,0.041,0.059,0.08,0.088,0.119c0.128,0.846,0.273,1.688,0.445,2.521    C98.529,183.507,96.894,180.858,95.491,178.626z M117.084,182.736c1.505-0.409,2.844-0.729,4.507-0.261    c1.633,0.461,3.169,1.288,4.728,1.979C127.241,185.808,118.441,183.991,117.084,182.736z M148.513,182.036    c0,0,0.818-1.788,1.782-3.639c1.052-1.144,2.111-2.28,3.041-3.526c0.012,0.125,0.015,0.273,0.008,0.45    C153.172,179.806,148.513,182.036,148.513,182.036z M149.98,143.662c3.806,1.723,6.856,4.297,8.509,5.898    c-1.173-0.783-2.434-1.436-3.721-2.119c-1.176-0.624-2.266-1.378-3.324-2.182c-1.091-0.829-2.326-1.472-3.308-2.429    c-0.09-0.088-0.171-0.184-0.256-0.276C148.476,142.923,149.167,143.294,149.98,143.662z M147.938,153.467    c0.699,0,1.266,0.67,1.266,1.495c0,0.826-0.566,1.495-1.266,1.495c-0.698,0-1.265-0.669-1.265-1.495    C146.673,154.137,147.239,153.467,147.938,153.467z M134.887,152.935c0.131,0,0.257,0.014,0.38,0.034    c0.091-0.688,0.419-1.803,0.694-2.808c0.093-0.205,0.157-0.411,0.228-0.634c0.052-0.166,0.082-0.32,0.1-0.481    c0.007-0.065,0.019-0.128,0.019-0.199c0-0.034,0.002-0.07,0.004-0.107c0.003-0.086,0.004-0.174-0.034-0.248    c-0.084-0.165-0.2-0.031-0.316,0.033c-0.073,0.04-0.157,0.08-0.225,0.127c-0.091,0.063-0.168,0.183-0.251,0.263    c-0.087,0.086-0.17,0.178-0.268,0.258c-0.041,0.033-0.084,0.063-0.128,0.094l-1.586,0.291v-0.288    c1.495-0.747,5.177-3.048,6.786-2.99c1.61,0.058,0.346,2.99,0.346,2.99s-1.323-0.575-2.128-0.402    c-0.396,0.085-0.777,0.1-1.063,0.094c-0.051,1.017-0.173,2.318-0.401,2.982c-0.271,0.785-0.477,1.283-0.646,1.587    c0.437,0.405,0.713,0.983,0.713,1.627c0,1.227-0.995,2.221-2.223,2.221c-1.227,0-2.221-0.994-2.221-2.221    C132.666,153.929,133.66,152.935,134.887,152.935z M127.811,123.103h0.068c-0.291,2.887-1.972,5.1-4.884,5.9    c-1.112,0.306-3.263,0.716-5.037,0.532C119.896,128.76,125.892,126.173,127.811,123.103z M123.435,152.289    c-0.476-1.378-0.483-2.366-0.368-3.019c0.371,0.261,0.707,0.585,0.992,0.951c-0.126,0.797,0.774,2.256,1.074,3.106    c0.146-0.03,0.3-0.047,0.455-0.047c1.228,0,2.223,0.994,2.223,2.221s-0.995,2.222-2.223,2.222c-1.226,0-2.221-0.995-2.221-2.222    c0-0.644,0.275-1.221,0.713-1.627C123.911,153.571,123.706,153.073,123.435,152.289z M125.587,131.731    c-0.641,0.465-1.387,0.831-2.246,1.066c-1.112,0.306-3.263,0.718-5.038,0.534c0.729-0.292,2.032-0.842,3.474-1.573    C123.047,131.797,124.317,131.789,125.587,131.731z M117.294,146.906c2.24-1.447,5.018,0.434,7.396,1.215    c0.785,0.674,1.338,1.206,1.338,1.206v0.862c0,0-1.956-2.012-2.934-1.955c-0.978,0.058-0.574,1.381-0.574,1.381    s-4.486,0.172-5.406-2.07c-0.068-0.167-0.115-0.322-0.146-0.47C117.075,147.032,117.185,146.977,117.294,146.906z     M116.308,137.825c-3.105,1.726-5.116,4.256-4.283,7.361c0.832,3.105,3.018,4.716,3.018,4.716s-1.836-0.054-3.399-0.532    c-1.03-1.377-1.842-2.888-2.297-4.534C109.688,141.848,111.496,138.122,116.308,137.825z M116.308,162.659    c7.016-0.47,10.006,1.85,14.607,0.93c4.602-0.92,12.652,0.806,16.966,0.69s6.613-3.796,7.534-1.035    c0.919,2.761-4.602,2.99-5.637,2.99s-2.761,0.46-8.672,2.301c-5.911,1.84-9.271,0.69-15.079,1.158    c-5.81,0.468-15.125-1.389-16.681-1.389c-1.555,0,3.098,5.477,8.611,5.176c5.513-0.301,13.992,1.726,15.545,1.726    c1.554,0,1.438,2.186-7.476,2.53c-8.915,0.345-14.78-5.062-17.31-6.211c-2.531-1.15-8.396-7.017-7.707-4.889    c0.69,2.129,1.84,9.145-0.896,5.004s-3.943-9.525-2.899-10.007C98.71,160.943,109.292,163.128,116.308,162.659z M90.544,161.519    c0.115,4.945-5.751-7.707,8.972-9.202C102.958,151.967,90.429,156.573,90.544,161.519z M99.723,134.726    c-2.342,0.358-9.697,1.656-14.441-2.451C89.593,132.933,97.306,134.519,99.723,134.726z M58.109,112.061    c-1.208,0.69-0.862,3.565-0.862,6.211s0.115,9.144-0.173,8.684c-0.287-0.46-3.45-9.777-3.681-13.342    c-0.23-3.565,0.863-5.521,2.646-5.837c1.783-0.316,3.415,1.92,5.866,4.227c2.933,2.76,2.357,9.776,0.69,7.706    c-1.668-2.071,0.173-3.623-0.69-5.176S59.316,111.371,58.109,112.061z M63.464,136.501c-0.466-0.862-3.687-3.047-3.745-4.485    c-0.057-1.438-1.265-4.715,0.345-6.728s2.301-4.199,3.911-2.761c1.801,1.609-2.301,5.751,0,10.525    C66.275,137.825,63.931,137.365,63.464,136.501z M76.972,151.626c0.637-5.184,0.986,8.613,2.582,17.574    c0.335,1.588-0.928,0.377-2.173-1.498C76.938,162.529,76.5,155.474,76.972,151.626z"
   id="path34" />
		<path
   fill="#FFFFFF"
   d="M94.897,103.529l0.084,0.032c-0.025-0.012-0.051-0.024-0.077-0.036    C94.902,103.526,94.899,103.528,94.897,103.529z"
   id="path36" />
		<polygon
   fill="#FFFFFF"
   points="94.981,103.561 94.988,103.564 94.99,103.564   "
   id="polygon38" />
	</g>
</g>
</svg>